<?xml version="1.0" standalone="no"?>
<!DOCTYPE svg PUBLIC "-//W3C//DTD SVG 20010904//EN"
 "http://www.w3.org/TR/2001/REC-SVG-20010904/DTD/svg10.dtd">
<svg version="1.0" xmlns="http://www.w3.org/2000/svg"
 width="2277.000000pt" height="2085.000000pt" viewBox="0 0 2277.000000 2085.000000"
 preserveAspectRatio="xMidYMid meet">

<g transform="translate(0.000000,2085.000000) scale(0.100000,-0.100000)"
fill="#000000" stroke="none">
<path d="M928 20183 c-2 -5 -2 -4412 0 -9795 l2 -9788 10433 -2 c5737 -2
10440 -1 10450 1 16 3 17 473 15 9795 l-3 9791 -10447 3 c-5746 1 -10448 -1
-10450 -5z m20586 -302 c4 -6 9 -16537 6 -18978 0 -10 -2035 -13 -10140 -13
-8105 0 -10140 3 -10140 13 0 52 0 18956 0 18970 0 16 489 17 10134 17 6054 0
10137 -4 10140 -9z"/>
<path d="M1954 19228 c-3 -4 -6 -16097 -4 -17670 0 -5 4243 -8 9430 -8 7537 0
9430 3 9430 13 4 2566 -2 17663 -8 17665 -17 5 -18844 6 -18848 0z m10481
-1278 c300 -21 342 -25 585 -65 284 -47 566 -112 855 -197 94 -27 229 -67 301
-88 123 -37 406 -147 699 -274 157 -68 438 -210 555 -282 47 -28 118 -68 159
-89 65 -32 169 -100 522 -340 48 -33 127 -91 175 -130 47 -38 134 -107 193
-153 58 -46 157 -131 220 -190 63 -59 142 -132 176 -162 80 -70 389 -391 435
-450 19 -25 80 -97 135 -160 56 -63 129 -153 162 -200 33 -47 91 -123 127
-170 131 -165 460 -677 526 -818 20 -42 56 -108 79 -145 45 -75 214 -407 226
-447 4 -14 40 -97 80 -185 39 -88 93 -215 120 -282 l48 -122 -17 -46 c-48
-125 -177 -190 -277 -140 -84 43 -89 52 -289 529 -106 252 -384 767 -555 1026
-34 52 -74 115 -88 140 -22 40 -190 270 -325 447 -88 115 -289 347 -433 499
-296 312 -679 647 -948 829 -65 44 -142 99 -172 122 -122 93 -553 345 -794
463 -267 131 -770 331 -967 386 -51 13 -131 36 -178 49 -468 133 -884 210
-1385 256 -341 32 -887 32 -1224 0 -514 -47 -899 -117 -1406 -252 -82 -22
-186 -50 -230 -62 -116 -30 -372 -124 -644 -233 -345 -140 -368 -151 -860
-413 -185 -99 -552 -337 -741 -481 -58 -44 -148 -112 -200 -152 -182 -137
-302 -245 -597 -533 -107 -104 -229 -233 -271 -285 -42 -52 -108 -129 -147
-171 -38 -42 -95 -111 -125 -153 -30 -42 -84 -113 -119 -158 -97 -126 -219
-307 -319 -474 -49 -83 -106 -175 -125 -205 -35 -55 -71 -124 -195 -379 -138
-282 -191 -408 -287 -685 -146 -420 -255 -812 -276 -990 -5 -44 -15 -111 -23
-150 -37 -179 -96 -627 -96 -726 0 -32 -5 -92 -11 -134 -7 -44 -8 -80 -3 -85
5 -4 482 -9 1059 -11 l1050 -4 2 45 c16 294 81 641 184 975 101 331 139 424
312 769 272 541 668 1051 1165 1500 193 175 482 399 641 497 39 24 100 62 134
83 80 51 349 206 407 236 257 132 849 358 1031 395 46 9 116 25 154 36 336 89
771 142 1175 141 398 -1 702 -40 1136 -147 337 -83 544 -161 946 -353 222
-107 618 -357 807 -511 52 -42 135 -109 185 -149 117 -93 462 -427 532 -514
30 -37 92 -108 138 -157 46 -49 106 -120 132 -156 27 -37 91 -121 142 -188
141 -181 164 -242 126 -323 -33 -70 -129 -134 -199 -134 -69 1 -150 73 -278
249 -45 62 -104 141 -132 176 -169 210 -549 607 -675 705 -41 32 -127 102
-190 155 -63 53 -146 116 -185 142 -38 25 -108 71 -155 102 -147 100 -378 231
-478 273 -52 22 -126 55 -163 74 -154 77 -568 218 -704 240 -22 3 -116 21
-210 39 -388 76 -828 96 -1215 55 -199 -21 -391 -50 -490 -75 -30 -7 -80 -16
-110 -19 -131 -16 -530 -144 -768 -248 -64 -28 -149 -63 -187 -77 -80 -31
-347 -172 -447 -237 -37 -23 -102 -62 -144 -85 -79 -44 -357 -244 -521 -376
-51 -41 -170 -147 -264 -236 -541 -512 -960 -1144 -1201 -1812 -87 -241 -196
-749 -213 -993 l-8 -102 4852 0 c4613 0 4851 -1 4851 -17 0 -54 -23 -325 -35
-428 -8 -66 -15 -147 -15 -180 0 -33 -9 -103 -20 -155 -11 -52 -20 -106 -20
-120 l0 -25 1222 3 c672 1 1225 -1 1229 -5 4 -5 4 -30 -1 -58 -5 -27 -18 -117
-30 -200 -62 -428 -167 -914 -264 -1227 -61 -196 -224 -646 -287 -794 -84
-199 -320 -663 -411 -809 -51 -82 -109 -177 -127 -210 -38 -67 -178 -271 -286
-415 -39 -52 -97 -129 -127 -170 -31 -41 -91 -113 -134 -160 -42 -47 -94 -107
-114 -135 -89 -119 -626 -639 -815 -789 -197 -156 -253 -199 -371 -284 -273
-198 -531 -358 -844 -523 -334 -176 -315 -167 -799 -366 -171 -70 -454 -169
-551 -193 -41 -10 -131 -34 -200 -53 -510 -145 -965 -224 -1545 -268 -87 -7
-318 -9 -610 -6 -385 4 -503 9 -652 26 -487 55 -802 116 -1333 260 -303 82
-596 185 -865 304 -55 24 -118 50 -140 57 -45 14 -418 199 -477 236 -21 13
-84 47 -140 76 -90 45 -237 135 -536 329 -45 30 -125 86 -176 124 -52 39 -142
106 -201 150 -370 277 -957 852 -1245 1221 -47 59 -104 129 -127 155 -22 26
-78 101 -122 166 -45 65 -113 161 -151 213 -38 52 -94 136 -123 185 -30 50
-113 187 -184 305 -72 118 -143 244 -159 280 -15 36 -46 97 -68 135 -22 39
-86 167 -143 285 -96 199 -103 219 -103 275 0 72 22 113 79 150 61 38 121 51
169 37 73 -22 118 -64 158 -149 178 -379 363 -729 480 -913 34 -52 73 -117 87
-145 14 -27 77 -123 140 -212 64 -89 138 -195 166 -235 250 -362 803 -956
1186 -1273 161 -133 492 -383 570 -429 44 -27 109 -70 145 -96 117 -85 584
-347 797 -446 146 -68 543 -227 753 -301 295 -104 871 -241 1250 -297 428 -64
523 -70 1070 -71 533 0 558 1 970 56 267 36 639 109 850 167 41 12 111 28 155
37 134 27 563 176 792 274 40 17 105 43 145 57 125 45 685 335 848 439 260
166 488 322 581 397 57 46 133 105 169 131 164 119 686 619 803 769 22 29 87
105 142 168 56 63 128 153 160 200 32 47 86 121 120 165 88 114 144 200 297
455 156 260 174 293 307 575 148 313 185 403 288 710 106 317 176 555 222 760
35 158 83 423 85 473 l1 33 -1025 -1 c-794 0 -1028 -3 -1037 -13 -6 -6 -21
-49 -32 -93 -40 -157 -179 -571 -239 -709 -132 -307 -331 -667 -489 -886 -32
-44 -83 -115 -114 -157 -30 -43 -89 -114 -130 -158 -41 -44 -103 -115 -139
-157 -58 -70 -354 -345 -470 -439 -137 -110 -486 -341 -606 -401 -60 -30 -137
-71 -172 -91 -252 -143 -780 -330 -1187 -421 -415 -92 -724 -125 -1200 -125
-486 0 -826 37 -1265 135 -130 29 -405 104 -495 135 -33 12 -100 32 -150 46
-261 73 -885 377 -1101 536 -33 25 -105 74 -160 110 -55 35 -129 91 -164 124
-36 33 -115 103 -176 156 -61 53 -151 143 -200 199 -49 56 -117 134 -152 173
-34 39 -86 109 -114 156 -28 47 -70 114 -93 150 -98 153 -112 188 -95 252 17
61 80 120 152 142 54 17 60 17 109 1 75 -25 110 -62 191 -203 172 -299 509
-648 843 -872 61 -41 146 -98 190 -128 84 -56 349 -193 545 -282 123 -56 421
-170 444 -170 7 0 76 -18 152 -41 453 -132 801 -190 1340 -220 194 -11 254
-11 485 5 462 30 810 91 1184 207 88 27 166 49 174 49 32 0 341 131 526 223
237 118 371 197 526 310 63 45 137 98 164 117 102 68 393 338 501 463 44 50
107 122 142 161 61 68 99 122 290 406 136 202 391 741 456 960 9 30 30 104 47
165 17 60 37 121 44 135 7 14 11 30 9 35 -3 7 -1018 9 -3048 6 -2859 -3 -6187
11 -6295 27 l-45 7 -22 105 c-56 256 -86 462 -100 678 -5 91 -10 112 -23 115
-9 2 -486 5 -1061 7 -575 1 -1135 6 -1245 9 l-200 6 1 215 c1 296 39 716 95
1045 33 196 141 710 170 810 84 289 255 770 358 1006 53 122 265 543 339 674
25 44 66 112 92 150 26 39 72 113 102 165 61 106 306 448 437 610 304 376 614
692 1014 1033 125 106 536 415 622 467 39 23 115 72 170 109 123 83 289 181
505 297 176 95 462 237 501 249 13 4 112 45 219 90 305 128 502 198 805 284
722 206 1116 275 1780 311 110 6 218 12 240 14 97 10 656 -5 920 -24z"/>
<path d="M7003 10417 c-10 -17 42 -472 57 -497 12 -20 2396 -31 5838 -28 1812
2 3296 7 3299 11 5 9 17 81 54 327 11 74 22 142 24 150 3 8 1 21 -3 28 -7 10
-934 13 -4636 15 -2545 1 -4630 -1 -4633 -6z"/>
</g>
</svg>
